<svg width="72" height="73" xmlns="http://www.w3.org/2000/svg"
     xml:space="preserve" overflow="hidden"><g transform="translate(-73 -476)"><path d="M50.9175 31.7925C52.95 30.42 55.2825 28.8825 54.6675 26.5425 54.6225 26.3625 53.9625 26.3625 53.9175 26.5425 53.61 27.855 53.295 29.04 50.1675 31.0425 49.9875 31.155 50.6475 31.9725 50.9175 31.7925Z" fill="#FFF" transform="matrix(1 0 0 1.01389 73 476)"/><path
        d="M41.925 45.705C42.105 45.555 43.7175 44.955 43.875 44.64 44.1488 44.0975 44.5319 43.6175 45 43.23 45.1253 43.1585 45.2685 43.1246 45.4125 43.1325L45.6675 43.38C45.9076 43.5331 46.1381 43.701 46.3575 43.8825 46.4325 43.98 46.2975 44.07 46.2975 44.07L46.2975 44.07 45.9825 44.1375C46.0075 44.2187 46.0275 44.3014 46.0425 44.385 46.0425 44.55 45.3525 44.8875 45.3525 44.8875L45.6675 45.2625C45.6675 45.2625 46.4775 45.3825 46.17 45.8925L45.42 46.71 45.045 47.5275C45.045 47.5275 45.045 48.0975 44.8575 48.2175 44.67 48.3375 44.6025 48.1575 44.295 48.285 43.5773 48.3713 42.8493 48.2732 42.18 48 42.109 47.7981 42.0858 47.5824 42.1125 47.37 42.1125 47.37 41.9625 47.37 41.7675 47.085 41.5347 46.6357 41.597 46.0903 41.925 45.705Z"
        fill="#FFF" transform="matrix(1 0 0 1.01389 73 476)"/><path
        d="M39.0375 49.1025C38.344 48.5173 37.7107 47.864 37.1475 47.1525L36.7125 46.7775 35.325 45.075 34.8225 44.5725C34.8225 44.5725 34.62 44.385 34.7625 44.325 35.1448 44.2823 35.5318 44.3259 35.895 44.4525 36.1125 44.5575 37.26 45.9 37.4625 45.8925 37.665 45.885 37.8 45.8025 37.965 45.8925 38.2138 46.103 38.4445 46.3337 38.655 46.5825 38.7899 46.6317 38.9184 46.6973 39.0375 46.7775 39.1507 46.9499 39.2344 47.1401 39.285 47.34 39.4236 47.5732 39.6199 47.767 39.855 47.9025 40.305 48.2175 40.1025 48.2175 40.1025 48.2175L39.975 48.7875C39.975 48.7875 40.11 49.35 39.975 49.4775 39.84 49.605 39.705 49.545 39.0375 49.1025Z"
        fill="#FFF" transform="matrix(1 0 0 1.01389 73 476)"/><path
        d="M35.775 6.75C20.0349 6.75 7.275 19.5099 7.275 35.25 7.275 50.9901 20.0349 63.75 35.775 63.75 51.5151 63.75 64.275 50.9901 64.275 35.25 64.275 19.5099 51.5151 6.75 35.775 6.75ZM49.4475 13.74C49.3425 13.83 49.335 14.0175 49.335 14.4075 49.335 15.1575 47.835 14.4075 46.335 14.4075 44.835 14.4075 42.585 15.1575 41.835 15.1575 41.085 15.1575 40.335 15.9075 39.585 15.9075 38.835 15.9075 39.465 14.82 38.835 14.4075 34.965 11.85 30.585 15.9075 29.835 15.1575 29.085 14.4075 26.085 15.9075 24.7875 15.9975 23.49 16.0875 22.335 15.9075 23.085 15.1575 23.835 14.4075 23.085 14.4075 22.335 13.6575L22.29 13.62C30.6075 8.41702 41.1763 8.46367 49.4475 13.74ZM52.3125 15.8625C63.0171 24.9629 64.3175 41.0181 55.217 51.7226 55.115 51.8427 55.0118 51.9619 54.9075 52.08 54.78 52.1475 54.7725 52.08 54.7575 51.9825 54.7425 51.885 54.7575 51.6675 54.8775 51.6675 54.9975 51.6675 55.1475 51.5925 55.1625 51.51 55.1775 51.4275 55.2075 50.76 55.23 50.7225 55.2525 50.685 55.1175 50.445 55.1025 50.4075 54.9891 50.0854 54.9038 49.7542 54.8475 49.4175 54.8475 49.29 54.8475 49.185 54.8475 49.1925 54.6708 49.3607 54.5215 49.5556 54.405 49.77 54.2775 50.1075 54.225 50.46 54.1125 50.88 54.0454 51.4261 53.7262 51.9092 53.25 52.185 52.8075 52.3875 51.9825 50.6175 51.9825 50.565 51.9834 50.5159 52.0052 50.4695 52.0425 50.4375 52.1772 50.3599 52.3074 50.2748 52.4325 50.1825 52.5596 50.0974 52.6756 49.9966 52.7775 49.8825 52.7775 49.755 52.68 49.5675 52.6125 49.62 52.5388 49.6733 52.448 49.6973 52.3575 49.6875 52.2794 49.657 52.2136 49.6016 52.17 49.53 51.9294 49.4177 51.6781 49.3298 51.42 49.2675 51.3075 49.2675 51.2325 49.1925 51.15 49.2675 51.0675 49.3425 50.955 49.74 50.955 49.74 50.955 49.74 50.4975 50.265 50.4975 50.265 50.4975 50.265 48.9975 51.45 48.6525 51.3975 48.3075 51.345 48 51.75 48 51.75 47.7825 51.795 47.25 52.44 47.175 52.5 47.1 52.56 44.7375 54.1275 44.2425 54.375 44.01 54.4875 43.56 54.435 43.4925 54.51 43.0589 55.0127 42.7459 55.6078 42.5775 56.25 42.5775 56.475 42.105 56.58 42.06 56.895 41.985 57.3975 42.375 57.9375 42.375 58.1775 42.3916 58.3346 42.3916 58.493 42.375 58.65 42.375 58.65 42.135 58.785 42.12 58.8375 42.0956 58.8765 42.0956 58.926 42.12 58.965 42.2864 59.0432 42.4596 59.106 42.6375 59.1525 42.825 59.1525 42.9 58.785 42.8775 58.365L43.3125 58.185C43.6686 57.9706 44.0978 57.9135 44.4975 58.0275 45.7425 58.2375 45.915 58.335 46.26 58.215 46.5061 58.156 46.7572 58.1208 47.01 58.11 34.3679 64.3159 19.0884 59.0984 12.8825 46.4563 11.536 43.7134 10.6934 40.7509 10.395 37.71 12.09 38.235 15.33 37.9875 18.36 35.4 19.3425 34.56 18.2775 34.1025 17.4975 33.5025 16.7175 32.9025 21.3225 33.8025 22.1025 34.2525 22.8825 34.7025 22.515 35.505 22.575 35.7525 23.0552 37.2248 23.634 38.663 24.3075 40.0575 25.3875 42.3075 25.74 42.9825 26.16 42.7425 26.725 42.1798 26.9724 41.3726 26.82 40.59 26.7 39.6375 26.7 38.7375 27.2175 39.0225 27.735 39.3075 29.685 37.665 30.615 36.945 31.545 36.225 31.5975 36.4125 32.0175 35.6325 32.4375 34.8525 32.2575 35.7525 33.1875 36.8175 34.1175 37.8825 34.41 37.965 34.26 38.265 34.11 38.565 33.93 39.5175 34.7025 39.8175 34.8591 39.8873 35.043 39.8444 35.1525 39.7125 35.04 40.9575 35.3025 42.9075 37.215 45.135 38.0325 46.0875 39.1275 46.6875 39.465 46.4325 39.8025 46.1775 36.7875 41.9325 37.2675 40.71 37.7475 39.4875 38.22 41.13 39.2175 41.7225 40.215 42.315 39.9675 42.6225 41.2725 41.7225 42.5775 40.8225 41.4525 39.57 40.4325 38.5575 39.4125 37.545 40.2525 37.1775 41.04 36.5625 41.8275 35.9475 41.5125 37.3125 42.045 37.3575 42.5775 37.4025 43.185 36.045 44.4975 35.745 45.81 35.445 46.17 33.9525 46.695 32.9175 47.22 31.8825 46.05 31.2675 45.195 30.1875 44.34 29.1075 46.8975 27.75 47.25 28.5 47.6025 29.25 47.4225 30 48.195 30.5475 48.9675 31.095 49.2675 29.58 48.945 29.0475 48.6225 28.515 48.195 29.0475 48.195 27.5475 48.195 26.0475 50.445 24.5475 51.195 24.5475 51.945 24.5475 51.195 22.2975 50.445 21.39 49.695 20.4825 48.195 20.7975 47.8125 20.9775 47.43 21.1575 48.2325 20.0475 48.6525 18.945 49.0725 17.8425 50.4825 18.5475 50.4825 18.5475L51.2325 17.7975C51.2325 17.7975 51.585 19.0125 51.9375 19.065 52.29 19.1175 52.3575 18.1725 52.3575 17.4225L52.3575 16.11Z"
        fill="#FFF" transform="matrix(1 0 0 1.01389 73 476)"/><path
        d="M51.54 44.1525 53.415 46.65C53.6315 46.9425 54.0268 47.0374 54.3525 46.875L55.29 46.4025 56.55 46.8225C56.9422 46.9556 57.3681 46.7456 57.5013 46.3534 57.5319 46.2631 57.545 46.1677 57.54 46.0725L57.54 46.0725C57.5399 45.8077 57.4003 45.5626 57.1725 45.4275L54 43.5C53.8811 43.4324 53.7468 43.3962 53.61 43.395 53.61 43.395 51.705 43.2075 51.57 43.395 51.435 43.5825 51.54 44.1525 51.54 44.1525Z"
        fill="#FFF" transform="matrix(1 0 0 1.01389 73 476)"/></g></svg>