<?xml version="1.0" encoding="UTF-8"?>
<svg width="1200pt" height="1200pt" version="1.1" viewBox="0 0 1200 1200" xmlns="http://www.w3.org/2000/svg">
    <path d="m902.4 1071.6h-476.4c-102 0-187.2-76.801-199.2-178.8l-82.801-763.2 12-1.1992c39.602-4.8008 80.398 8.3984 110.4 34.801 30 26.398 48 64.801 48 105.6v25.199c1.1992 93.602 68.398 226.8 69.602 228 9.6016 21.602 19.199 40.801 28.801 60 42 86.398 72 147.6 45.602 259.2l-1.1992 3.6016 526.8-38.406c20.398-1.1992 39.602 6 52.801 20.398 14.398 14.398 20.398 34.801 16.801 54l-9.6016 66c-8.3984 70.805-69.602 124.8-141.6 124.8z"
          fill="#FFF"/>
    <path d="m574.8 800.4c-3.6016 0-7.1992-1.1992-9.6016-3.6016-4.8008-4.8008-3.6016-13.199 1.1992-16.801 3.6016-3.6016 7.1992-6 10.801-9.6016 25.199-21.602 46.801-40.801 44.398-73.199-2.3984-33.602-27.602-48-56.398-64.801-30-18-64.801-37.199-68.398-84-3.6016-45.602 26.398-72 52.801-94.801 3.6016-2.3984 6-4.8008 9.6016-8.3984 4.8008-4.8008 13.199-3.6016 16.801 1.1992 4.8008 4.8008 3.6016 13.199-1.1992 16.801-3.6016 2.3984-6 4.8008-9.6016 8.3984-25.199 21.602-46.801 40.801-44.398 73.199 2.3984 33.602 27.602 48 56.398 64.801 30 18 64.801 37.199 68.398 84 3.6016 45.602-26.398 72-52.801 94.801-3.6016 2.3984-7.1992 6-10.801 8.3984-1.1992 2.4062-3.6016 3.6055-7.1992 3.6055z"
          fill="#FFF"/>
    <path d="m727.2 789.6c-3.6016 0-7.1992-1.1992-9.6016-3.6016-4.8008-4.8008-3.6016-13.199 1.1992-16.801 3.6016-3.6016 7.1992-6 10.801-9.6016 25.199-21.602 46.801-40.801 44.398-73.199-2.3984-33.602-27.602-48-56.398-64.801-30-18-64.801-37.199-68.398-84-3.6016-45.602 26.398-72 52.801-94.801 3.6016-2.3984 6-4.8008 9.6016-8.3984 4.8008-4.8008 13.199-3.6016 16.801 1.1992 4.8008 4.8008 3.6016 13.199-1.1992 16.801-3.6016 2.3984-6 4.8008-9.6016 8.3984-25.199 21.602-46.801 40.801-44.398 73.199 2.3984 33.602 27.602 48 56.398 64.801 30 18 64.801 37.199 68.398 84 3.6016 45.602-26.398 72-52.801 94.801-3.6016 2.3984-7.1992 6-10.801 8.3984-1.1992 2.4023-3.5977 3.6055-7.1992 3.6055z"
          fill="#FFF"/>
    <path d="m879.6 780c-3.6016 0-7.1992-1.1992-9.6016-3.6016-4.8008-4.8008-3.6016-13.199 1.1992-16.801 3.6016-3.6016 7.1992-6 10.801-9.6016 25.199-21.602 46.801-40.801 44.398-73.199-2.3984-33.602-27.602-48-56.398-64.801-30-18-64.801-37.199-68.398-84-3.6016-45.602 26.398-72 52.801-94.801 3.6016-2.3984 6-4.8008 9.6016-8.3984 4.8008-4.8008 13.199-3.6016 16.801 1.1992 4.8008 4.8008 3.6016 13.199-1.1992 16.801-3.6016 2.3984-6 4.8008-9.6016 8.3984-25.199 21.602-46.801 40.801-44.398 73.199 2.3984 33.602 27.602 48 56.398 64.801 30 18 64.801 37.199 68.398 84 3.6016 45.602-26.398 72-52.801 94.801-3.6016 2.3984-7.1992 6-10.801 8.3984-1.1992 2.4062-3.6016 3.6055-7.1992 3.6055z"
          fill="#FFF"/>
</svg>
