<?xml version="1.0" encoding="UTF-8"?>
<svg width="1200pt" height="1200pt" version="1.1" viewBox="0 0 1200 1200" xmlns="http://www.w3.org/2000/svg">
    <path d="m934.2 394.44h-24c-5.1758 4.3164-10.812 8.0586-16.801 11.16l-3 1.5586h-0.83984l-2.6406 1.0781h-1.0781l-2.3984 0.96094h-1.3203l-2.5195 0.96094h-1.0781l-3.6016 0.96094h-54.488l-3.6016-0.96094h-1.0781l-2.6406-0.96094h-1.1992l-2.5195-0.96094h-1.0781l-2.6367-0.23828h-0.71875l-3.1211-1.5586c-6.0117-3.1289-11.68-6.8672-16.918-11.16h-24c-22.594-0.035156-44.285 8.8438-60.371 24.703-16.086 15.863-25.266 37.426-25.551 60.016v38.762h345v-38.762c-0.09375-22.703-9.1719-44.449-25.25-60.48s-37.844-25.047-60.551-25.078z"
          fill="#000"/>
    <path d="m430.32 747.6c-1.4375-16.004-7.6211-31.215-17.762-43.68-0.78516-1.043-1.668-2.0078-2.6367-2.8828-15.531-14.156-36.152-21.391-57.121-20.039-20.973-1.3516-41.59 5.8828-57.121 20.039-0.9375 0.90625-1.8203 1.8672-2.6406 2.8828-10.094 12.488-16.273 27.688-17.758 43.68 0 1.6797 0 3.3594-0.60156 5.1602v5.1602 11.039 1.6797c0.070312 20.133 3.2695 40.129 9.4805 59.281 0.71875 1.8008 1.3203 3.7188 2.0391 5.5195 0.71875 1.8008 1.4414 3.6016 2.2812 5.3984 4.2617 10.109 10.414 19.312 18.121 27.121h0.60156-0.003906c4.457 4.2305 9.5117 7.7891 15 10.559l2.3984 1.0781 2.6406 1.0781h10.316l3.4805 0.60156h4.3164l14.648 0.003906h4.4414l3.4805-0.60156h9.5977l2.6406-1.0781 2.5195-1.0781v-0.003907c5.5234-2.7109 10.586-6.2734 15-10.559h0.71875c7.668-7.8398 13.812-17.035 18.121-27.121l2.1602-5.3984c0.71875-1.8008 1.4414-3.7188 2.0391-5.5195 6.2344-19.148 9.4727-39.145 9.6016-59.281v-1.6797-11.039-5.1602c0.48047-1.8008 0.23828-3.4805 0-5.1602z"
          fill="#000"/>
    <path d="m439.2 894.72h-24c-5.2188 4.2656-10.844 8.0039-16.801 11.16l-3.1211 1.4414h-0.71875l-2.6406 1.1992h-1.0781l-2.5195 0.83984h-1.1992l-3.1211 2.6406h-1.0781l-3.6016 1.0781h-53.527l-3.832-1.0781h-1.0781l-2.6406-0.83984h-1.0781l-2.5195-0.96094h-1.0781l-2.6406-1.1992h-0.83984l-3.1211-1.4414h-0.003906c-5.9883-3.0977-11.621-6.8398-16.801-11.16h-24c-22.52-0.066407-44.168 8.7109-60.281 24.441-16.113 15.734-25.406 37.164-25.879 59.68v38.762h345v-38.762c0-22.754-9.0391-44.578-25.129-60.668-16.094-16.094-37.914-25.133-60.672-25.133z"
          fill="#000"/>
    <path d="m768 273.48c0.33594 23.027 5.0195 45.789 13.801 67.078 4.2227 10.102 10.332 19.309 18 27.121l0.71875 0.60156c4.4102 4.3203 9.4727 7.9258 15 10.68l2.5195 1.1992 2.6406 1.0781h5.1602l2.1602 2.7617h2.8789l3.4805 0.71875h27.961l1.6797-0.71875h9.5977l2.6406-1.0781 2.3984-1.1992 0.003906-0.003906c5.5078-2.7812 10.566-6.3828 15-10.68v-0.60156 0.003906c7.707-7.8086 13.855-17.012 18.121-27.121 9.1289-22.277 13.816-46.125 13.797-70.199v-4.3203c0-30.359-7.0781-53.281-21.602-68.039h0.003907c-15.578-14.066-36.176-21.25-57.121-19.922h0.35938c-20.945-1.3281-41.543 5.8555-57.121 19.922-14.637 15.238-22.078 37.68-22.078 68.039v1.5586 3.1211z"
          fill="#000"/>
    <path d="m955.92 609.12c-4.0742-0.16406-8.0391 1.3242-10.996 4.125-2.9609 2.8008-4.6641 6.6797-4.7266 10.754-2.375 64.297-23.637 126.47-61.133 178.76-37.5 52.285-89.566 92.367-149.71 115.24-40.902 15.594-84.539 22.738-128.28 21-4.8711 0.55859-9.1797 3.4258-11.57 7.707-2.3945 4.2812-2.5781 9.4531-0.5 13.895 2.082 4.4453 6.1719 7.6133 10.992 8.5195h13.441c43.309 0.058594 86.258-7.832 126.72-23.281 86.957-33.074 157.65-98.648 197.16-182.88 20.266-43.328 31.531-90.316 33.121-138.12 0.16016-4.0117-1.2773-7.9219-4.0039-10.871-2.7227-2.9492-6.5078-4.6914-10.516-4.8477z"
          fill="#000"/>
    <path d="m270.36 614.28c3.9648 0.13281 7.8242-1.2852 10.758-3.9531 2.9336-2.6641 4.7148-6.3711 4.9609-10.328 1.457-43.742 11.785-86.73 30.363-126.36 35.922-77.238 100.47-137.48 180-168 40.855-15.602 84.457-22.746 128.16-21 5.1523-0.20703 9.8516-3.0039 12.488-7.4375 2.6367-4.4336 2.8516-9.8984 0.57422-14.523-2.2812-4.625-6.7422-7.7891-11.863-8.3984-94.719-3.3711-186.9 30.996-256.29 95.551-69.395 64.555-110.32 154.02-113.79 248.73-0.16016 4.0312 1.293 7.9609 4.043 10.914s6.5664 4.6836 10.598 4.8086z"
          fill="#000"/>
</svg>
