<svg width="71" height="71" xmlns="http://www.w3.org/2000/svg"
     xml:space="preserve" overflow="hidden"><g transform="translate(-73 -365)"><path d="M129.214 403.464 124.406 392.148C123.748 390.482 122.13 389.393 120.339 389.411L96.6718 389.411C94.8802 389.393 93.2627 390.482 92.6041 392.148L87.7968 403.458 87.7968 403.458 87.7968 403.464C85.3493 403.471 83.367 405.453 83.3593 407.901L83.3593 419.734C83.3642 421.366 84.6859 422.688 86.3177 422.693L87.7968 422.693 87.7968 427.87C87.8017 429.502 89.1234 430.823 90.7552 430.828L92.2343 430.828C93.866 430.823 95.1874 429.501 95.1927 427.87L95.1927 422.693 121.818 422.693 121.818 427.87C121.823 429.501 123.144 430.823 124.776 430.828L126.255 430.828C127.887 430.823 129.209 429.502 129.214 427.87L129.214 422.693 130.693 422.693C132.324 422.688 133.646 421.366 133.651 419.734L133.651 407.901C133.643 405.453 131.661 403.471 129.214 403.464ZM93.9635 392.723 93.9724 392.703 93.9798 392.683C94.4169 391.584 95.4874 390.869 96.6704 390.885L120.337 390.885C121.52 390.868 122.59 391.583 123.028 392.682L123.036 392.702 123.044 392.722 127.604 403.458 89.404 403.458ZM93.712 427.876C93.712 428.693 93.0498 429.356 92.2329 429.356L90.75 429.356C89.9331 429.356 89.2708 428.693 89.2708 427.876L89.2708 422.688 93.7083 422.688ZM127.733 427.876C127.733 428.693 127.071 429.356 126.254 429.356L124.775 429.356C123.958 429.356 123.295 428.693 123.295 427.876L123.295 422.699 127.733 422.699ZM86.3162 421.22C85.4993 421.22 84.837 420.558 84.837 419.741L84.837 407.908C84.837 406.274 86.1616 404.949 87.7954 404.949L129.212 404.949C130.846 404.949 132.17 406.274 132.17 407.908L132.17 419.739C132.17 420.556 131.508 421.218 130.691 421.218Z" fill="#7F7F7F"/><path
        d="M127.729 407.269 123.292 407.269C122.066 407.269 121.073 408.263 121.073 409.488L121.073 410.967C121.073 412.193 122.066 413.186 123.292 413.186L127.729 413.186C128.955 413.186 129.948 412.193 129.948 410.967L129.948 409.488C129.948 408.263 128.955 407.269 127.729 407.269ZM128.469 410.967C128.469 411.376 128.138 411.707 127.729 411.707L123.292 411.707C122.883 411.707 122.552 411.376 122.552 410.967L122.552 409.488C122.552 409.08 122.883 408.749 123.292 408.749L127.729 408.749C128.138 408.749 128.469 409.08 128.469 409.488Z"
        fill="#7F7F7F"/><path
        d="M93.7083 407.269 89.2708 407.269C88.0454 407.269 87.0521 408.263 87.0521 409.488L87.0521 410.967C87.0521 412.193 88.0454 413.186 89.2708 413.186L93.7083 413.186C94.9337 413.186 95.9271 412.193 95.9271 410.967L95.9271 409.488C95.9271 408.263 94.9337 407.269 93.7083 407.269ZM94.4479 410.967C94.4479 411.376 94.1168 411.707 93.7083 411.707L89.2708 411.707C88.8624 411.707 88.5312 411.376 88.5312 410.967L88.5312 409.488C88.5312 409.08 88.8624 408.749 89.2708 408.749L93.7083 408.749C94.1168 408.749 94.4479 409.08 94.4479 409.488Z"
        fill="#7F7F7F"/><path
        d="M86.2578 379.293 86.6446 380.155C87.2626 381.59 88.3526 382.77 89.7338 383.501 91.5188 384.42 93.6259 384.475 95.456 383.649 96.602 383.138 97.5774 382.31 98.2664 381.261L118.597 381.261C120.638 384.294 124.75 385.098 127.783 383.057 127.894 382.983 128.002 382.905 128.108 382.824 129.012 382.111 129.726 381.186 130.185 380.13L130.572 379.281C130.574 379.277 130.572 379.272 130.568 379.271 130.567 379.27 130.566 379.27 130.565 379.27L124.956 379.27 123.994 377.577 124.983 375.864 130.59 375.864C130.594 375.864 130.597 375.861 130.597 375.857 130.598 375.855 130.597 375.854 130.597 375.853L130.227 375.031C129.565 373.484 128.361 372.231 126.842 371.508 123.882 370.163 120.383 371.17 118.591 373.883L98.2634 373.883C96.2276 370.852 92.1201 370.045 89.0892 372.081 89.0715 372.093 89.0539 372.105 89.0364 372.117 88.0001 372.848 87.1841 373.85 86.6771 375.012L86.2866 375.872C86.285 375.876 86.2867 375.88 86.2905 375.882 86.2914 375.882 86.2923 375.882 86.2933 375.882L91.8941 375.866 92.8637 377.573 91.8749 379.286 86.2644 379.286C86.2607 379.286 86.2578 379.289 86.2578 379.293ZM94.5685 377.573 92.7535 374.379 88.7598 374.391C88.7509 374.391 88.7479 374.385 88.7539 374.378 89.22 373.79 89.8092 373.312 90.48 372.976 92.9726 371.797 95.9531 372.746 97.3042 375.15L97.427 375.362 119.437 375.362 119.574 375.12C120.019 374.308 120.668 373.624 121.455 373.135 123.68 371.795 126.555 372.325 128.154 374.371 128.16 374.379 128.154 374.385 128.149 374.385L124.133 374.385 122.294 377.573 124.093 380.753 128.103 380.753C128.112 380.753 128.114 380.759 128.109 380.766 127.642 381.355 127.051 381.835 126.379 382.171 123.883 383.349 120.902 382.397 119.552 379.991L119.433 379.786 97.421 379.786 97.2598 380.069C96.8949 380.736 96.3904 381.316 95.7806 381.77 93.5416 383.402 90.4119 382.965 88.7051 380.783 88.6999 380.776 88.7051 380.77 88.711 380.77L92.7291 380.77Z"
        fill="#7F7F7F"/></g></svg>