<svg width="176" height="180" xmlns="http://www.w3.org/2000/svg"
     xml:space="preserve" overflow="hidden"><defs><filter id="fx0" x="-10%" y="-10%" width="120%" height="120%" filterUnits="userSpaceOnUse" primitiveUnits="userSpaceOnUse"><feComponentTransfer color-interpolation-filters="sRGB"><feFuncR type="discrete" tableValues="0 0"/><feFuncG
        type="discrete" tableValues="0 0"/><feFuncB type="discrete" tableValues="0 0"/><feFuncA type="linear"
                                                                                                slope="0.4"
                                                                                                intercept="0"/></feComponentTransfer><feGaussianBlur
        stdDeviation="0 0"/></filter><clipPath id="clip1"><rect x="29" y="19" width="118" height="133"/></clipPath></defs>
    <g transform="translate(-82 -93)"><g clip-path="url(#clip1)" filter="url(#fx0)" transform="translate(82 96)"><g><g><g><g><path d="M52.9503 56.5503C54.1127 56.565 55.44 56.5631 56.8608 56.5503 57.1696 72.7375 70.5423 85.6097 86.7295 85.301 102.566 84.9989 115.298 72.1721 115.484 56.334 116.017 54.5263 119.412 42.1788 115.333 34.3706 112.707 28.8629 107.051 25.4498 100.954 25.6935 97.9568 23.3211 85.3893 14.8475 67.7178 23.191 53.2345 30.0238 52.8147 45.0076 52.833 47.2571L51.183 54.3063C50.952 55.2921 51.564 56.2786 52.5499 56.5094 52.6799 56.5399 52.813 56.5562 52.9467 56.5576ZM86.1667 81.667C72.1727 81.6472 60.7697 70.4285 60.522 56.4366 67.3768 56.1525 75.4637 55.2633 80.5512 52.8598 87.208 49.7175 95.6212 42.639 98.2685 40.34 100.81 41.5115 103.06 43.2321 104.856 45.378 106.357 47.2128 107.656 49.2036 108.731 51.3161 109.589 52.847 110.565 54.5776 111.808 56.4971 111.528 70.4644 100.137 81.6468 86.1667 81.667ZM56.4557 47.8566C56.4925 47.6986 56.5085 47.5365 56.5033 47.3745 56.485 46.7768 56.1697 32.6858 69.2835 26.4946 73.5462 24.388 78.226 23.2605 82.9803 23.1946 88.8677 23.1171 94.5892 25.1449 99.1137 28.9128 99.5308 29.307 100.107 29.4844 100.674 29.3931 105.504 28.9596 110.08 31.6307 112.077 36.05 114.365 40.4298 113.705 46.9895 112.902 51.2465 112.558 50.6451 112.235 50.0695 111.925 49.5176 110.731 47.1816 109.286 44.9822 107.617 42.958 105.2 39.9451 101.967 37.6925 98.3033 36.4698 97.7183 36.3294 97.1018 36.485 96.6533 36.886 96.5507 36.9776 86.3518 46.071 78.9947 49.536 73.0235 52.3538 61.6953 52.836 55.2878 52.8763Z" fill="#000"/><path
            d="M140.311 110.129C131.895 103.651 122.255 98.945 111.971 96.2952 109.602 95.5856 107.217 94.9733 104.883 94.4746L103.954 94.2748 103.255 94.922C95.7843 101.834 90.7207 101.834 88 101.834 85.2793 101.834 80.1735 101.834 72.7393 95.0136L72.0445 94.3756 71.1278 94.57C68.882 95.043 66.5097 95.6205 64.0567 96.2896 53.8961 99.2673 44.3126 103.942 35.7115 110.117 31.7678 113.206 29.4252 117.908 29.3333 122.917L29.3333 151.334 33 151.334 33 122.917C33.0808 119.05 34.8889 115.423 37.928 113.032 46.1593 107.139 55.3247 102.677 65.0393 99.8316 67.0743 99.2817 69.0727 98.783 70.9702 98.365 78.1 104.633 83.5707 105.5 88 105.5 92.4293 105.5 97.8707 104.622 105.032 98.2605 106.977 98.7005 108.955 99.2193 110.941 99.8151 120.758 102.332 129.964 106.811 138.004 112.98 141.079 115.373 142.913 119.022 143 122.917L143 151.334 146.667 151.334 146.667 122.917C146.578 117.916 144.244 113.22 140.311 110.129Z"
            fill="#000"/></g></g></g></g></g>
        <g><g><g><path d="M134.95 148.55C136.113 148.565 137.44 148.563 138.861 148.55 139.17 164.737 152.542 177.609 168.729 177.301 184.566 176.999 197.298 164.172 197.484 148.334 198.017 146.526 201.412 134.178 197.333 126.37 194.707 120.863 189.051 117.45 182.954 117.693 179.957 115.321 167.389 106.847 149.718 115.191 135.234 122.023 134.815 137.007 134.833 139.257L133.183 146.306C132.952 147.292 133.564 148.278 134.55 148.509 134.68 148.54 134.813 148.556 134.947 148.557ZM168.167 173.667C154.173 173.647 142.77 162.428 142.522 148.436 149.377 148.152 157.464 147.263 162.551 144.859 169.208 141.717 177.621 134.639 180.269 132.34 182.81 133.511 185.06 135.232 186.856 137.378 188.357 139.212 189.656 141.203 190.731 143.316 191.589 144.847 192.565 146.577 193.808 148.497 193.528 162.464 182.137 173.646 168.167 173.667ZM138.456 139.856C138.493 139.698 138.508 139.536 138.503 139.374 138.485 138.777 138.17 124.686 151.284 118.494 155.546 116.388 160.226 115.26 164.98 115.194 170.868 115.117 176.589 117.145 181.114 120.912 181.531 121.307 182.107 121.484 182.674 121.393 187.504 120.959 192.08 123.63 194.077 128.05 196.365 132.43 195.705 138.989 194.902 143.246 194.557 142.645 194.235 142.069 193.925 141.517 192.731 139.181 191.286 136.982 189.617 134.958 187.2 131.945 183.967 129.692 180.303 128.469 179.718 128.329 179.102 128.485 178.653 128.886 178.551 128.977 168.352 138.071 160.995 141.536 155.023 144.354 143.695 144.836 137.288 144.876Z" fill="#000"/><path
                d="M222.311 202.129C213.895 195.651 204.255 190.945 193.971 188.295 191.602 187.585 189.217 186.973 186.883 186.474L185.954 186.275 185.255 186.922C177.784 193.833 172.721 193.833 170 193.833 167.279 193.833 162.173 193.833 154.739 187.013L154.044 186.375 153.128 186.57C150.882 187.043 148.51 187.62 146.057 188.289 135.896 191.267 126.313 195.942 117.712 202.116 113.768 205.206 111.425 209.908 111.333 214.917L111.333 243.333 115 243.333 115 214.917C115.081 211.05 116.889 207.423 119.928 205.031 128.159 199.139 137.325 194.677 147.039 191.831 149.074 191.281 151.073 190.783 152.97 190.365 160.1 196.633 165.571 197.5 170 197.5 174.429 197.5 179.871 196.622 187.032 190.26 188.977 190.7 190.955 191.219 192.941 191.815 202.758 194.332 211.964 198.81 220.004 204.98 223.079 207.373 224.913 211.022 225 214.917L225 243.333 228.667 243.333 228.667 214.917C228.578 209.915 226.244 205.219 222.311 202.129Z"
                fill="#000"/></g></g></g></g></svg>