<svg xmlns="http://www.w3.org/2000/svg" data-name="Layer 1" viewBox="0 10 100 80" x="0px" y="0px"><path d="m72.86,32.86H27.14c-9.45,0-17.14,7.69-17.14,17.14s7.69,17.14,17.14,17.14h45.72c9.45,0,17.14-7.69,17.14-17.14s-7.69-17.14-17.14-17.14Zm0,31.08c-7.69,0-13.94-6.25-13.94-13.94s6.25-13.94,13.94-13.94,13.94,6.25,13.94,13.94-6.25,13.94-13.94,13.94Z"/><path d="m72.86,38.19c-6.51,0-11.81,5.3-11.81,11.81s5.3,11.81,11.81,11.81,11.81-5.3,11.81-11.81-5.3-11.81-11.81-11.81Zm5.96,9.09l-6.94,6.94s-.02.01-.03.02c-.1.09-.19.16-.31.21h-.01c-.1.04-.21.07-.32.09h-.09c-.13,0-.26-.03-.37-.07-.03-.01-.05-.03-.07-.04-.1-.04-.18-.1-.26-.17-.02-.01-.03-.01-.05-.03l-3.47-3.47c-.42-.42-.42-1.1,0-1.51.42-.42,1.09-.42,1.5,0l2.72,2.72,6.2-6.2c.42-.42,1.09-.42,1.5,0,.42.42.42,1.1,0,1.51Z"/>
</svg>