<svg xmlns="http://www.w3.org/2000/svg" version="1.1" viewBox="25 25 50 50">
 <path d="m38.176 34.289c0 1.9688 1.6055 3.5742 3.5742 3.5742h0.64062v-3.9766h-4.2109v0.40234z"/>
 <path d="m38.176 44.996c0 1.9688 1.6055 3.5742 3.5742 3.5742h0.64062v-3.9766h-4.2109v0.40234z"/>
 <path d="m38.176 55.699c0 1.9688 1.6055 3.5742 3.5742 3.5742h0.64062v-3.9727h-4.2109v0.39844z"/>
 <path d="m57.613 48.57h0.64062c1.9688 0 3.5742-1.6055 3.5742-3.5742v-0.39844h-4.2109l0.003906 3.9727z"/>
 <path d="m57.613 33.891v3.9766h0.64062c1.9688 0 3.5742-1.6055 3.5742-3.5742v-0.39844z"/>
 <path d="m57.613 58.977v0.30078h0.64062c1.9688 0 3.5742-1.6055 3.5742-3.5742v-0.39844h-4.2109l0.003906 3.6719z"/>
 <path d="m50 27.285c-3.8047 0-6.9062 3.0938-6.9062 6.9062v24.785c0 3.4258 2.5039 6.2734 5.7812 6.8086 0.03125-0.011718 0.066406-0.015625 0.09375-0.015625 0.070312 0 0.13672 0.019531 0.19141 0.054688 0.27344 0.035156 0.55469 0.050781 0.83984 0.050781s0.56641-0.019531 0.83984-0.050781c0.054687-0.035157 0.12109-0.054688 0.19141-0.054688 0.035156 0 0.066406 0.003907 0.09375 0.015625 3.2734-0.53906 5.7812-3.3906 5.7812-6.8086v-24.789c0-3.8008-3.1016-6.9023-6.9062-6.9023zm0 35.504c-2.3789 0-4.3203-1.9336-4.3203-4.3203 0-2.3789 1.9336-4.3203 4.3203-4.3203 2.3789 0 4.3203 1.9336 4.3203 4.3203s-1.9414 4.3203-4.3203 4.3203zm0-11.891c-2.3789 0-4.3203-1.9336-4.3203-4.3203 0-2.3789 1.9336-4.3203 4.3203-4.3203 2.3789 0 4.3203 1.9336 4.3203 4.3203s-1.9414 4.3203-4.3203 4.3203zm0-11.887c-2.3789 0-4.3203-1.9336-4.3203-4.3203 0-2.3789 1.9336-4.3203 4.3203-4.3203 2.3789 0 4.3203 1.9336 4.3203 4.3203 0 2.3789-1.9414 4.3203-4.3203 4.3203z"/>
 <path d="m49.684 37.906-0.14844-0.058594-0.14453-0.058594c-0.19531-0.085937-0.375-0.17578-0.55078-0.27344-0.35156-0.19922-0.66016-0.44141-0.93359-0.71484-0.27344-0.27344-0.51562-0.58984-0.71484-0.93359-0.10156-0.17578-0.19531-0.35547-0.27344-0.55078-0.019531-0.050781-0.039063-0.10156-0.058594-0.14453l-0.058594-0.14844c-0.019531-0.050782-0.039062-0.10547-0.054687-0.15625-0.019532-0.054688-0.035156-0.10547-0.058594-0.16016-0.019531 0.054688-0.035156 0.10938-0.050781 0.16406-0.011719 0.054687-0.023438 0.11328-0.035157 0.17188-0.011718 0.054687-0.015624 0.11328-0.019531 0.17578-0.003906 0.058594-0.003906 0.11328-0.003906 0.17578 0 0.23438 0.035156 0.46875 0.10547 0.69922 0.12891 0.45312 0.39062 0.88672 0.73047 1.2266 0.33984 0.33984 0.76563 0.59375 1.2266 0.73047 0.23047 0.066407 0.46484 0.10156 0.69531 0.10547 0.058593 0 0.11328 0 0.17578-0.003906 0.058593-0.003906 0.11328-0.011719 0.17578-0.019532 0.054688-0.011718 0.11328-0.019531 0.17188-0.035156 0.054687-0.015625 0.10938-0.03125 0.16406-0.050781-0.054688-0.019531-0.10938-0.039063-0.16016-0.058594-0.078125-0.042969-0.12891-0.0625-0.17969-0.082031z"/>
 <path d="m49.684 49.797-0.14844-0.058594-0.14453-0.058593c-0.19531-0.085938-0.375-0.17578-0.55078-0.27344-0.35156-0.19922-0.66016-0.44141-0.93359-0.71484-0.27344-0.27344-0.51562-0.58984-0.71484-0.93359-0.10156-0.17578-0.19531-0.35547-0.27344-0.55078-0.019531-0.050781-0.039063-0.10156-0.058594-0.14453l-0.058594-0.14844c-0.019531-0.050781-0.039062-0.10547-0.054687-0.15625-0.019532-0.054687-0.035156-0.10547-0.058594-0.16016-0.019531 0.054688-0.035156 0.10938-0.050781 0.16406-0.011719 0.054687-0.023438 0.11328-0.035157 0.17188-0.011718 0.054687-0.015624 0.11328-0.019531 0.17578-0.003906 0.058594-0.003906 0.11328-0.003906 0.17578 0 0.23438 0.035156 0.46875 0.10547 0.69922 0.12891 0.45312 0.39062 0.88672 0.73047 1.2266 0.33984 0.33984 0.76563 0.59375 1.2266 0.73047 0.23047 0.066406 0.46484 0.10156 0.69531 0.10547 0.058593 0 0.11328 0 0.17578-0.003906 0.058593-0.003907 0.11328-0.011719 0.17578-0.019531 0.054688-0.011719 0.11328-0.019532 0.17188-0.035157 0.054687-0.015625 0.10938-0.03125 0.16406-0.050781-0.054688-0.019531-0.10938-0.039062-0.16016-0.058594-0.078125-0.042968-0.12891-0.0625-0.17969-0.082031z"/>
 <path d="m49.684 61.684-0.14844-0.058594-0.14453-0.058594c-0.19531-0.085937-0.375-0.17578-0.55078-0.27344-0.35156-0.19922-0.66016-0.44141-0.93359-0.71484s-0.51562-0.58984-0.71484-0.93359c-0.10156-0.17578-0.19531-0.35547-0.27344-0.55078-0.019531-0.050781-0.039063-0.10156-0.058594-0.14453l-0.058594-0.14844c-0.019531-0.050781-0.039062-0.10547-0.054687-0.15625-0.019532-0.054687-0.035156-0.10547-0.058594-0.16016-0.019531 0.054687-0.035156 0.10938-0.050781 0.16406-0.011719 0.054687-0.023438 0.11328-0.035157 0.17187-0.011718 0.054688-0.015624 0.11328-0.019531 0.17578-0.003906 0.058594-0.003906 0.11328-0.003906 0.17578 0 0.23438 0.035156 0.46875 0.10547 0.69922 0.12891 0.45312 0.39062 0.88672 0.73047 1.2266 0.33984 0.33984 0.76563 0.59375 1.2266 0.73047 0.23047 0.066406 0.46484 0.10156 0.69531 0.10547 0.058593 0 0.11328 0 0.17578-0.003906 0.058593-0.003907 0.11328-0.011719 0.17578-0.019532 0.054688-0.011718 0.11328-0.019531 0.17188-0.035156 0.054687-0.015625 0.10938-0.03125 0.16406-0.050781-0.054688-0.019531-0.10938-0.039063-0.16016-0.058594-0.078125-0.039063-0.12891-0.0625-0.17969-0.082031z"/>
 <path d="m52.441 72.004h-1.7656v-5.4453c-0.22656 0.019531-0.44531 0.03125-0.67578 0.03125-0.22656 0-0.44922-0.011719-0.67578-0.03125v5.4453h-1.7656c-0.19531 0-0.35547 0.16016-0.35547 0.35547s0.16016 0.35547 0.35547 0.35547h4.875c0.19531 0 0.35547-0.16016 0.35547-0.35547 0.007813-0.19922-0.15234-0.35547-0.34766-0.35547z"/>
</svg>