<svg xmlns="http://www.w3.org/2000/svg" data-name="Layer 1" viewBox="0 10 100 80" x="0px" y="0px"><path d="m28.57,36.43c-7.48,0-13.57,6.09-13.57,13.57s6.09,13.57,13.57,13.57,13.57-6.09,13.57-13.57-6.09-13.57-13.57-13.57Zm0,24.14c-5.83,0-10.57-4.74-10.57-10.57s4.74-10.57,10.57-10.57,10.57,4.74,10.57,10.57-4.74,10.57-10.57,10.57Z"/><path d="m71.43,31.43H28.57c-10.24,0-18.57,8.33-18.57,18.57s8.33,18.57,18.57,18.57h42.86c10.24,0,18.57-8.33,18.57-18.57s-8.33-18.57-18.57-18.57Zm0,34.14H28.57c-8.59,0-15.57-6.98-15.57-15.57s6.98-15.57,15.57-15.57h42.86c8.59,0,15.57,6.98,15.57,15.57s-6.98,15.57-15.57,15.57Z"/><path d="m32.89,45.68c-.59-.59-1.54-.59-2.12,0l-2.2,2.2-2.2-2.2c-.59-.59-1.54-.59-2.12,0s-.59,1.54,0,2.12l2.2,2.2-2.2,2.2c-.59.59-.59,1.54,0,2.12.29.29.68.44,1.06.44s.77-.15,1.06-.44l2.2-2.2,2.2,2.2c.29.29.68.44,1.06.44s.77-.15,1.06-.44c.59-.59.59-1.54,0-2.12l-2.2-2.2,2.2-2.2c.59-.59.59-1.54,0-2.12Z"/>
</svg>