<svg width="1300" height="970" xmlns="http://www.w3.org/2000/svg" xmlns:xlink="http://www.w3.org/1999/xlink" xml:space="preserve" overflow="hidden"><defs><clipPath id="clip0"><rect x="349" y="825" width="1300" height="970"/></clipPath><clipPath id="clip1"><rect x="1204" y="919" width="445" height="877"/></clipPath><clipPath id="clip2"><rect x="1204" y="919" width="445" height="877"/></clipPath></defs><g clip-path="url(#clip0)" transform="translate(-349 -825)"><g><g><g><path d="M291.667 565.104C291.667 605.375 259.021 638.021 218.75 638.021 178.479 638.021 145.833 605.375 145.833 565.104 145.833 524.833 178.479 492.187 218.75 492.187 259.021 492.187 291.667 524.833 291.667 565.104Z" transform="matrix(1 0 0 1 349 893)"/><path d="M729.167 565.104C729.167 605.375 696.521 638.021 656.25 638.021 615.979 638.021 583.333 605.375 583.333 565.104 583.333 524.833 615.979 492.187 656.25 492.187 696.521 492.187 729.167 524.833 729.167 565.104Z" transform="matrix(1 0 0 1 349 893)"/><path d="M355.469 382.812 355.469 273.437 480.338 273.437C490.365 273.437 499.479 277.083 505.859 284.375L604.297 382.812 355.469 382.812ZM319.01 382.812 88.4114 382.812 186.849 284.375C194.141 277.083 203.255 273.437 212.37 273.437L319.01 273.437 319.01 382.812ZM747.396 382.812 671.745 382.812C661.719 382.812 652.604 379.167 646.224 371.875L531.38 257.943C517.708 244.271 499.479 236.979 479.427 236.979L212.37 236.979C193.229 236.979 174.089 244.271 160.417 257.943L47.3958 371.875C40.1042 379.167 36.4583 388.281 36.4583 398.307L36.4583 492.187C36.4583 532.292 69.2708 565.104 109.375 565.104L118.49 565.104C118.49 509.505 163.151 464.844 218.75 464.844 274.349 464.844 319.01 509.505 319.01 565.104L555.99 565.104C555.99 509.505 600.651 464.844 656.25 464.844 711.849 464.844 756.51 509.505 756.51 565.104L802.083 565.104C822.135 565.104 838.542 548.698 838.542 528.646L838.542 473.958C838.542 423.828 797.526 382.812 747.396 382.812Z" transform="matrix(1 0 0 1 349 893)"/></g></g></g><path d="M1174 943.148 1232.59 825 1226.81 933.472 1293.31 915.791 1266.9 974.009 1336.08 990.754 1281.15 1038.38 1344 1095.72 1269.03 1088.63 1289.62 1193.6 1224.69 1119.49 1212.52 1227.05 1169.78 1129.23 1137.56 1265 1125.44 1143.33 1078.96 1183.86 1093.2 1108.9 1006.13 1122.14 1062.59 1064.86 1004 1000.49 1076.83 980.161 1009.82 871.75 1119.1 953.741 1135.47 871.75Z" fill-rule="evenodd"/><path d="M823 1584.75 1083.5 1584.75 1083.5 1529 1195 1640.5 1083.5 1752 1083.5 1696.25 823 1696.25Z" fill-rule="evenodd"/><g clip-path="url(#clip1)"><g clip-path="url(#clip2)"><g><path d="M291.175 564.152C291.175 604.354 258.584 636.945 218.381 636.945 178.178 636.945 145.587 604.354 145.587 564.152 145.587 523.949 178.178 491.358 218.381 491.358 258.584 491.358 291.175 523.949 291.175 564.152Z" transform="matrix(1 0 0 1.00169 1204.21 920)"/><path d="M727.938 564.152C727.938 604.354 695.347 636.945 655.144 636.945 614.941 636.945 582.35 604.354 582.35 564.152 582.35 523.949 614.941 491.358 655.144 491.358 695.347 491.358 727.938 523.949 727.938 564.152Z" transform="matrix(1 0 0 1.00169 1204.21 920)"/><path d="M354.87 382.167 354.87 272.977 479.529 272.977C489.538 272.977 498.637 276.616 505.007 283.896L603.278 382.167 354.87 382.167ZM318.473 382.167 88.2624 382.167 186.534 283.896C193.813 276.616 202.913 272.977 212.012 272.977L318.473 272.977 318.473 382.167ZM746.136 382.167 670.612 382.167C660.603 382.167 651.504 378.527 645.135 371.248L530.484 257.508C516.836 243.859 498.637 236.58 478.619 236.58L212.012 236.58C192.903 236.58 173.795 243.859 160.146 257.508L47.3159 371.248C40.0366 378.527 36.3969 387.627 36.3969 397.636L36.3969 491.358C36.3969 531.394 69.1541 564.152 109.191 564.152L118.29 564.152C118.29 508.646 162.876 464.06 218.381 464.06 273.886 464.06 318.473 508.646 318.473 564.152L555.052 564.152C555.052 508.646 599.638 464.06 655.144 464.06 710.649 464.06 755.235 508.646 755.235 564.152L800.731 564.152C820.749 564.152 837.128 547.773 837.128 527.755L837.128 473.159C837.128 423.114 796.182 382.167 746.136 382.167Z" transform="matrix(1 0 0 1.00169 1204.21 920)"/></g></g></g></g></svg>