<svg width="17" height="14" viewBox="0 0 17 14" fill="none" xmlns="http://www.w3.org/2000/svg">
<path d="M8.80225 4.75977C8.50146 4.75977 8.34717 4.60547 8.33936 4.29688L8.26318 1.20312C8.25928 1.05078 8.30811 0.925781 8.40967 0.828125C8.51123 0.730469 8.64014 0.681641 8.79639 0.681641C8.95264 0.681641 9.08154 0.732422 9.18311 0.833984C9.28857 0.931641 9.33936 1.05664 9.33545 1.20898L9.25342 4.29688C9.24561 4.60547 9.09521 4.75977 8.80225 4.75977ZM8.80225 6.66406C8.63428 6.66406 8.48584 6.60547 8.35693 6.48828C8.23193 6.36719 8.16943 6.22266 8.16943 6.05469C8.16943 5.88672 8.23193 5.74414 8.35693 5.62695C8.48193 5.50977 8.63037 5.45117 8.80225 5.45117C8.97412 5.45117 9.12256 5.50977 9.24756 5.62695C9.37256 5.74414 9.43506 5.88672 9.43506 6.05469C9.43506 6.22656 9.37061 6.37109 9.2417 6.48828C9.1167 6.60547 8.97021 6.66406 8.80225 6.66406ZM16.8003 6.64062C16.7495 6.66797 16.6987 6.69727 16.6479 6.72852C16.6011 6.75586 16.5522 6.78516 16.5015 6.81641L14.5386 8.05273C14.4292 8.12305 14.3159 8.17773 14.1987 8.2168C14.0815 8.25195 13.9429 8.2793 13.7827 8.29883L11.6675 8.55664C11.1558 8.61914 10.7593 8.78711 10.478 9.06055C10.2007 9.33398 10.062 9.66602 10.062 10.0566V10.6953C10.062 11.3164 10.3413 11.627 10.8999 11.627H11.6499V12.4766H10.8999C10.3218 12.4766 9.896 12.3359 9.62256 12.0547C9.34912 11.7734 9.2124 11.332 9.2124 10.7305V10.0566C9.2124 9.63867 9.30615 9.26562 9.49365 8.9375C9.68506 8.60938 9.95459 8.33984 10.3022 8.12891C10.6538 7.91797 11.0737 7.7832 11.562 7.72461L13.9058 7.43164L16.0444 6.08398C16.1733 6.00195 16.3003 5.92773 16.4253 5.86133C16.5542 5.79102 16.6792 5.72461 16.8003 5.66211V6.64062ZM16.8003 12.4766H14.4331V11.627H16.8003V12.4766ZM13.103 13.625C12.7515 13.625 12.4331 13.541 12.1479 13.373C11.8667 13.2051 11.6421 12.9785 11.4741 12.6934C11.3101 12.4121 11.228 12.0957 11.228 11.7441C11.228 11.3926 11.3101 11.0742 11.4741 10.7891C11.6421 10.5039 11.8667 10.2793 12.1479 10.1152C12.4331 9.94727 12.7515 9.86328 13.103 9.86328C13.4546 9.86328 13.7729 9.94727 14.0581 10.1152C14.3433 10.2793 14.5679 10.5039 14.7319 10.7891C14.8999 11.0742 14.9839 11.3926 14.9839 11.7441C14.9839 12.0957 14.8999 12.4121 14.7319 12.6934C14.5679 12.9785 14.3433 13.2051 14.0581 13.373C13.7729 13.541 13.4546 13.625 13.103 13.625ZM13.103 12.8223C13.4077 12.8223 13.6655 12.7168 13.8765 12.5059C14.0874 12.2988 14.1929 12.0449 14.1929 11.7441C14.1929 11.4395 14.0874 11.1836 13.8765 10.9766C13.6655 10.7656 13.4077 10.6602 13.103 10.6602C12.8022 10.6602 12.5464 10.7656 12.3354 10.9766C12.1284 11.1836 12.0249 11.4395 12.0249 11.7441C12.0249 12.0449 12.1284 12.2988 12.3354 12.5059C12.5464 12.7168 12.8022 12.8223 13.103 12.8223ZM4.06201 13.625C3.71045 13.625 3.39209 13.541 3.10693 13.373C2.82178 13.2051 2.59521 12.9785 2.42725 12.6934C2.25928 12.4121 2.17529 12.0957 2.17529 11.7441C2.17529 11.3926 2.25928 11.0742 2.42725 10.7891C2.59521 10.5039 2.82178 10.2793 3.10693 10.1152C3.39209 9.94727 3.71045 9.86328 4.06201 9.86328C4.41357 9.86328 4.72998 9.94727 5.01123 10.1152C5.29639 10.2793 5.521 10.5039 5.68506 10.7891C5.85303 11.0742 5.93701 11.3926 5.93701 11.7441C5.93701 12.0957 5.85303 12.4121 5.68506 12.6934C5.521 12.9785 5.29639 13.2051 5.01123 13.373C4.72998 13.541 4.41357 13.625 4.06201 13.625ZM4.06201 12.8223C4.35889 12.8223 4.61279 12.7168 4.82373 12.5059C5.03467 12.2988 5.14014 12.0449 5.14014 11.7441C5.14014 11.4395 5.03467 11.1836 4.82373 10.9766C4.61279 10.7656 4.35889 10.6602 4.06201 10.6602C3.75732 10.6602 3.49951 10.7656 3.28857 10.9766C3.07764 11.1836 2.97217 11.4395 2.97217 11.7441C2.97217 12.0449 3.07764 12.2988 3.28857 12.5059C3.49951 12.7168 3.75732 12.8223 4.06201 12.8223ZM0.804199 11.627H2.80225V12.4766H0.804199V11.627ZM5.50342 12.4766V11.627H6.26514C6.81982 11.627 7.09717 11.3164 7.09717 10.6953V9.23633C7.09717 8.95898 7.0249 8.73633 6.88037 8.56836C6.73975 8.40039 6.51709 8.26953 6.2124 8.17578L5.65576 7.98828C5.49561 7.94141 5.37061 7.89648 5.28076 7.85352C5.19092 7.80664 5.0835 7.72852 4.9585 7.61914C4.51318 7.22852 4.08936 6.9082 3.68701 6.6582C3.28467 6.4043 2.88232 6.21875 2.47998 6.10156C2.07764 5.98047 1.65381 5.91992 1.2085 5.91992H0.804199V5.06445H1.2085C1.84131 5.06445 2.42334 5.16406 2.95459 5.36328C3.48584 5.55859 3.97217 5.80859 4.41357 6.11328C4.85889 6.41406 5.26514 6.72266 5.63232 7.03906L6.47021 7.30859C6.97412 7.46875 7.34521 7.70703 7.5835 8.02344C7.82568 8.33984 7.94678 8.74414 7.94678 9.23633V10.6953C7.94678 11.3125 7.81201 11.7637 7.54248 12.0488C7.27295 12.334 6.84717 12.4766 6.26514 12.4766H5.50342Z" fill="black"/>
</svg>
