<svg width="121" height="112" viewBox="0 0 121 112" fill="none" xmlns="http://www.w3.org/2000/svg">
<path d="M68.0361 0C63.7142 0.128202 59.8448 2.64478 58.0678 6.48314L56.4236 10.0357C55.9601 11.0372 55.5526 12.0632 55.2033 13.1078L54.4285 15.4255L48.7816 15.7117C46.6611 15.8196 45 17.525 45 19.5925V21.216C45 21.8539 45.5311 22.371 46.1862 22.371H52.1301C51.8349 23.4051 51.6359 24.464 51.5485 25.535L51.2485 29.2276C51.1412 30.544 51.1588 31.8662 51.3026 33.1793L51.8192 37.8959C51.9627 39.2059 52.2856 40.491 52.7781 41.718L53.8391 44.361C53.968 44.6821 54.2846 44.8941 54.6387 44.8941H55.2094V55.5654C55.2094 56.1167 55.6656 56.5608 56.2318 56.5608H64.9829C65.5491 56.5608 66.0053 56.1167 66.0053 55.5654V44.8941H99.9947V55.5654C99.9947 56.1167 100.451 56.5608 101.017 56.5608H109.768C110.334 56.5608 110.791 56.1167 110.791 55.5654V44.8941H111.361C111.715 44.8941 112.032 44.6821 112.161 44.361L113.222 41.718C113.714 40.491 114.037 39.2059 114.181 37.8959L114.697 33.1793C114.841 31.8662 114.859 30.544 114.752 29.2276L114.451 25.535C114.364 24.464 114.165 23.4051 113.87 22.371H119.814C120.469 22.371 121 21.8539 121 21.216V19.5925C121 17.525 119.339 15.8196 117.218 15.7117L111.572 15.4255L110.797 13.1078C110.447 12.0632 110.04 11.0372 109.576 10.0357L107.932 6.48314C106.156 2.64478 102.286 0.128226 97.9639 0H68.0361ZM70.4303 4.56608H95.5696C99.007 4.56608 102.13 6.51329 103.568 9.55385L107.988 20.4102H58.0123L62.4323 9.55385C63.8693 6.51337 66.9925 4.56608 70.4303 4.56608Z" fill="black"/>
<path d="M66.3811 36.2393C68.5678 36.2393 70.3405 34.5133 70.3405 32.3841C70.3405 30.2549 68.5678 28.5288 66.3811 28.5288C64.1943 28.5288 62.4216 30.2549 62.4216 32.3841C62.4216 34.5133 64.1943 36.2393 66.3811 36.2393Z" fill="white"/>
<path d="M102.016 36.2393C104.203 36.2393 105.976 34.5133 105.976 32.3841C105.976 30.2549 104.203 28.5288 102.016 28.5288C99.8293 28.5288 98.0566 30.2549 98.0566 32.3841C98.0566 34.5133 99.8293 36.2393 102.016 36.2393Z" fill="white"/>
<path d="M22.2749 23.6406L13.4578 44.9874L27.3796 48.2358L76.57 44.9874L68.2169 23.6406H22.2749Z" fill="white" stroke="black"/>
<path d="M25.764 19C20.9303 19.1473 16.6027 22.0379 14.6153 26.4469L12.7764 30.5275C12.258 31.6779 11.8022 32.8564 11.4116 34.0563L10.545 36.7185L4.2294 37.0472C1.85786 37.1712 0 39.1301 0 41.5049V43.3697C0 44.1025 0.593987 44.6964 1.32672 44.6964H7.97444C7.64435 45.8842 7.4217 47.1006 7.32403 48.3307L6.98844 52.5723C6.86839 54.0843 6.88811 55.6031 7.04898 57.1113L7.62674 62.5291C7.78724 64.0338 8.14839 65.5099 8.69919 66.9193L9.8858 69.9551C10.03 70.324 10.3841 70.5675 10.7801 70.5675H11.4184V82.8251C11.4184 83.4584 11.9286 83.9685 12.5618 83.9685H22.3493C22.9826 83.9685 23.4927 83.4584 23.4927 82.8251V70.5675H61.5072V82.8251C61.5072 83.4584 62.0174 83.9685 62.6506 83.9685H72.4381C73.0714 83.9685 73.5815 83.4584 73.5815 82.8251V70.5675H74.2198C74.6159 70.5675 74.97 70.324 75.1141 69.9551L76.3008 66.9193C76.8516 65.5099 77.2127 64.0338 77.3732 62.5291L77.951 57.1113C78.1118 55.6031 78.1316 54.0843 78.0115 52.5723L77.676 48.3307C77.5783 47.1006 77.3556 45.8842 77.0256 44.6964H83.6733C84.4061 44.6964 85 44.1024 85 43.3697V41.5049C85 39.1301 83.1421 37.1712 80.7706 37.0472L74.455 36.7185L73.5884 34.0563C73.1978 32.8564 72.742 31.6779 72.2235 30.5275L70.3847 26.4469C68.3977 22.0379 64.0698 19.1473 59.236 19H25.764ZM28.4417 24.2448H56.5581C60.4026 24.2448 63.8958 26.4815 65.5033 29.974L70.4467 42.4442H14.5533L19.4967 29.974C21.1038 26.4816 24.5969 24.2448 28.4417 24.2448Z" fill="black"/>
<path d="M23.9129 60.6263C26.3586 60.6263 28.3413 58.6437 28.3413 56.198C28.3413 53.7523 26.3586 51.7697 23.9129 51.7697C21.4672 51.7697 19.4846 53.7523 19.4846 56.198C19.4846 58.6437 21.4672 60.6263 23.9129 60.6263Z" fill="white"/>
<path d="M63.7679 60.6263C66.2136 60.6263 68.1963 58.6437 68.1963 56.198C68.1963 53.7523 66.2136 51.7697 63.7679 51.7697C61.3222 51.7697 59.3396 53.7523 59.3396 56.198C59.3396 58.6437 61.3222 60.6263 63.7679 60.6263Z" fill="white"/>
<path d="M43 44L33.5 67L48.5 70.5L101.5 67L92.5 44H43Z" fill="white" stroke="black"/>
<path d="M46.7593 39C41.5513 39.1587 36.8885 42.2732 34.7471 47.0236L32.7659 51.4202C32.2073 52.6597 31.7162 53.9295 31.2954 55.2223L30.3617 58.0907L23.557 58.4449C21.0017 58.5785 19 60.6891 19 63.2478V65.257C19 66.0465 19.64 66.6865 20.4295 66.6865H27.592C27.2364 67.9662 26.9965 69.2768 26.8912 70.6023L26.5297 75.1723C26.4003 76.8014 26.4216 78.4379 26.5949 80.0629L27.2174 85.9002C27.3903 87.5215 27.7794 89.1119 28.3729 90.6305L29.6514 93.9014C29.8067 94.2988 30.1882 94.5612 30.615 94.5612H31.3027V107.768C31.3027 108.45 31.8524 109 32.5347 109H43.0802C43.7625 109 44.3121 108.45 44.3121 107.768V94.5612H85.2707V107.768C85.2707 108.45 85.8203 109 86.5026 109H97.0481C97.7304 109 98.28 108.45 98.28 107.768V94.5612H98.9678C99.3945 94.5612 99.776 94.2988 99.9314 93.9014L101.21 90.6305C101.803 89.1119 102.192 87.5214 102.365 85.9002L102.988 80.0629C103.161 78.4379 103.182 76.8014 103.053 75.1723L102.692 70.6023C102.586 69.2768 102.346 67.9662 101.991 66.6865H109.153C109.943 66.6865 110.583 66.0465 110.583 65.257V63.2478C110.583 60.6891 108.581 58.5785 106.026 58.4449L99.2212 58.0907L98.2874 55.2223C97.8666 53.9295 97.3755 52.6597 96.8169 51.4202L94.8357 47.0236C92.6948 42.2732 88.0317 39.1587 82.8235 39H46.7593ZM49.6444 44.651H79.9382C84.0804 44.651 87.8442 47.0609 89.5762 50.8239L94.9025 64.2598H34.6803L40.0066 50.8239C41.7382 47.061 45.5018 44.651 49.6444 44.651Z" fill="black"/>
<path d="M44.7649 83.8501C47.4 83.8501 49.5362 81.7139 49.5362 79.0788C49.5362 76.4437 47.4 74.3075 44.7649 74.3075C42.1298 74.3075 39.9937 76.4437 39.9937 79.0788C39.9937 81.7139 42.1298 83.8501 44.7649 83.8501Z" fill="white"/>
<path d="M87.7063 83.8501C90.3414 83.8501 92.4776 81.7139 92.4776 79.0788C92.4776 76.4437 90.3414 74.3075 87.7063 74.3075C85.0712 74.3075 82.9351 76.4437 82.9351 79.0788C82.9351 81.7139 85.0712 83.8501 87.7063 83.8501Z" fill="white"/>
</svg>
