<?xml version="1.0" encoding="utf-8"?>
<svg width="121" height="112" viewBox="0 0 121 112" fill="none" xmlns="http://www.w3.org/2000/svg">
  <path d="M 68.036 0 C 63.714 0.128 59.845 2.645 58.068 6.483 L 56.424 10.036 C 55.96 11.037 55.553 12.063 55.203 13.108 L 54.429 15.426 L 48.782 15.712 C 46.661 15.82 45 17.525 45 19.593 L 45 21.216 C 45 21.854 45.531 22.371 46.186 22.371 L 52.13 22.371 C 51.835 23.405 65.725 23.198 65.638 24.269 L 68.821 29.544 C 68.794 29.877 68.876 30.789 69.016 31.987 C 69.43 35.52 70.35 41.538 70.458 42.519 L 51.484 41.92 C 51.628 43.23 52.286 40.491 52.778 41.718 L 57.64 41.678 C 57.769 41.999 57.08 42.546 57.434 42.546 L 54.762 42.658 C 60.627 40.596 58.589 40.539 56.662 41.926 C 56.662 42.478 58.908 42.14 59.474 42.14 L 61.629 41.916 C 62.195 41.916 64.216 42.814 64.216 42.262 L 67.123 41.54 L 99.995 44.894 L 99.995 55.565 C 99.995 56.117 100.451 56.561 101.017 56.561 L 109.768 56.561 C 110.334 56.561 110.791 56.117 110.791 55.565 L 110.791 44.894 L 111.361 44.894 C 111.715 44.894 112.032 44.682 112.161 44.361 L 113.222 41.718 C 113.714 40.491 114.037 39.206 114.181 37.896 L 114.697 33.179 C 114.841 31.866 114.859 30.544 114.752 29.228 L 114.451 25.535 C 114.364 24.464 114.165 23.405 113.87 22.371 L 119.814 22.371 C 120.469 22.371 121 21.854 121 21.216 L 121 19.593 C 121 17.525 119.339 15.82 117.218 15.712 L 111.572 15.426 L 110.797 13.108 C 110.447 12.063 110.04 11.037 109.576 10.036 L 107.932 6.483 C 106.156 2.645 102.286 0.128 97.964 0 L 68.036 0 Z M 70.43 4.566 L 95.57 4.566 C 99.007 4.566 102.13 6.513 103.568 9.554 L 107.988 20.41 L 58.012 20.41 L 62.432 9.554 C 63.869 6.513 66.993 4.566 70.43 4.566 Z" fill="black"/>
  <path d="M102.016 36.2393C104.203 36.2393 105.976 34.5133 105.976 32.3841C105.976 30.2549 104.203 28.5288 102.016 28.5288C99.8293 28.5288 98.0566 30.2549 98.0566 32.3841C98.0566 34.5133 99.8293 36.2393 102.016 36.2393Z" fill="white"/>
  <path d="M 25.764 19 C 20.93 19.147 16.603 22.038 14.615 26.447 L 12.776 30.528 C 12.258 31.678 11.802 32.856 11.412 34.056 L 10.545 36.719 L 4.229 37.047 C 1.858 37.171 0 39.13 0 41.505 L 0 43.37 C 0 44.103 0.594 44.696 1.327 44.696 L 7.974 44.696 C 7.644 45.884 7.422 47.101 7.324 48.331 L 6.988 52.572 C 6.868 54.084 6.888 55.603 7.049 57.111 L 7.627 62.529 C 7.787 64.034 8.148 65.51 8.699 66.919 L 9.886 69.955 C 10.03 70.324 10.384 70.568 10.78 70.568 L 11.418 70.568 L 11.418 82.825 C 11.418 83.458 11.929 83.969 12.562 83.969 L 22.349 83.969 C 22.983 83.969 23.493 83.458 23.493 82.825 L 23.493 70.568 L 61.507 70.568 L 61.507 82.825 C 61.507 83.458 62.017 83.969 62.651 83.969 L 72.438 83.969 C 73.071 83.969 73.582 83.458 73.582 82.825 L 73.582 70.568 L 74.22 70.568 C 74.616 70.568 74.97 70.324 75.114 69.955 L 76.301 66.919 C 76.852 65.51 73.636 72.866 73.796 71.361 L 33.011 66.39 C 33.172 64.882 36.993 52.631 36.873 51.119 L 42.909 44.083 C 42.811 42.853 75.12 43.313 74.79 42.125 L 81.325 42.237 C 82.058 42.237 85 44.102 85 43.37 L 85 41.505 C 85 39.13 83.142 37.171 80.771 37.047 L 74.455 36.719 L 73.588 34.056 C 73.198 32.856 72.742 31.678 72.224 30.528 L 70.385 26.447 C 68.398 22.038 64.07 19.147 59.236 19 L 25.764 19 Z M 28.442 24.245 L 56.558 24.245 C 60.403 24.245 63.896 26.482 65.503 29.974 L 70.447 42.444 L 14.553 42.444 L 19.497 29.974 C 21.104 26.482 24.597 24.245 28.442 24.245 Z" fill="black"/>
  <path d="M23.9129 60.6263C26.3586 60.6263 28.3413 58.6437 28.3413 56.198C28.3413 53.7523 26.3586 51.7697 23.9129 51.7697C21.4672 51.7697 19.4846 53.7523 19.4846 56.198C19.4846 58.6437 21.4672 60.6263 23.9129 60.6263Z" fill="white"/>
  <path d="M46.7593 39C41.5513 39.1587 36.8885 42.2732 34.7471 47.0236L32.7659 51.4202C32.2073 52.6597 31.7162 53.9295 31.2954 55.2223L30.3617 58.0907L23.557 58.4449C21.0017 58.5785 19 60.6891 19 63.2478V65.257C19 66.0465 19.64 66.6865 20.4295 66.6865H27.592C27.2364 67.9662 26.9965 69.2768 26.8912 70.6023L26.5297 75.1723C26.4003 76.8014 26.4216 78.4379 26.5949 80.0629L27.2174 85.9002C27.3903 87.5215 27.7794 89.1119 28.3729 90.6305L29.6514 93.9014C29.8067 94.2988 30.1882 94.5612 30.615 94.5612H31.3027V107.768C31.3027 108.45 31.8524 109 32.5347 109H43.0802C43.7625 109 44.3121 108.45 44.3121 107.768V94.5612H85.2707V107.768C85.2707 108.45 85.8203 109 86.5026 109H97.0481C97.7304 109 98.28 108.45 98.28 107.768V94.5612H98.9678C99.3945 94.5612 99.776 94.2988 99.9314 93.9014L101.21 90.6305C101.803 89.1119 102.192 87.5214 102.365 85.9002L102.988 80.0629C103.161 78.4379 103.182 76.8014 103.053 75.1723L102.692 70.6023C102.586 69.2768 102.346 67.9662 101.991 66.6865H109.153C109.943 66.6865 110.583 66.0465 110.583 65.257V63.2478C110.583 60.6891 108.581 58.5785 106.026 58.4449L99.2212 58.0907L98.2874 55.2223C97.8666 53.9295 97.3755 52.6597 96.8169 51.4202L94.8357 47.0236C92.6948 42.2732 88.0317 39.1587 82.8235 39H46.7593ZM49.6444 44.651H79.9382C84.0804 44.651 87.8442 47.0609 89.5762 50.8239L94.9025 64.2598H34.6803L40.0066 50.8239C41.7382 47.061 45.5018 44.651 49.6444 44.651Z" fill="black"/>
  <path d="M44.7649 83.8501C47.4 83.8501 49.5362 81.7139 49.5362 79.0788C49.5362 76.4437 47.4 74.3075 44.7649 74.3075C42.1298 74.3075 39.9937 76.4437 39.9937 79.0788C39.9937 81.7139 42.1298 83.8501 44.7649 83.8501Z" fill="white"/>
  <path d="M87.7063 83.8501C90.3414 83.8501 92.4776 81.7139 92.4776 79.0788C92.4776 76.4437 90.3414 74.3075 87.7063 74.3075C85.0712 74.3075 82.9351 76.4437 82.9351 79.0788C82.9351 81.7139 85.0712 83.8501 87.7063 83.8501Z" fill="white"/>
</svg>