<svg overflow="hidden" xml:space="preserve"
     xmlns="http://www.w3.org/2000/svg" viewBox="325.78378346007605 141.83587980000001 1237.0171102661595 1240.464"
     style="max-height: 500px" width="1237.0171102661595" height="1240.464"><defs><filter primitiveUnits="userSpaceOnUse" filterUnits="userSpaceOnUse" height="120%" width="120%" y="-10%" x="-10%" id="fx0"><feComponentTransfer color-interpolation-filters="sRGB"><feFuncR type="discrete"/><feFuncG
        type="discrete"/><feFuncB type="discrete"/><feFuncA type="linear"/></feComponentTransfer><feGaussianBlur
        stdDeviation="4.13322 4.13551"/></filter><clipPath id="clip1"><rect height="1803" width="1897" y="610" x="150"/></clipPath><clipPath
        id="clip2"><rect height="304.669" width="420" y="244.636" x="267.5"/></clipPath></defs>
    <g transform="translate(-150 -610)" clip-path="url(#clip1)"><path fill-rule="evenodd" fill="none" stroke-miterlimit="8" stroke-width="20.625" stroke="#000000" d="M580.5 1371C580.5 1087.4 810.402 857.5 1094 857.5 1377.6 857.5 1607.5 1087.4 1607.5 1371 1607.5 1654.6 1377.6 1884.5 1094 1884.5 810.402 1884.5 580.5 1654.6 580.5 1371Z"/>
        <g transform="matrix(2 0 0 1.99889 149 610)" filter="url(#fx0)" clip-path="url(#clip2)"><g><path transform="matrix(0.5 0 0 0.500277 263.157 529)" d="M372.205-150.674C372.205-126.512 367.997-104.725 359.581-85.314 351.165-65.9028 339.084-49.2744 323.338-35.4287 307.592-21.583 288.181-10.9272 265.104-3.46143 242.028 4.00439 215.966 7.7373 186.917 7.7373 169.27 7.7373 152.778 6.31201 137.439 3.46143 122.1 0.61084 108.458-2.78271 96.5127-6.71924 84.5674-10.6558 74.6582-14.728 66.7851-18.936 58.9121-23.144 53.9575-26.1982 51.9214-28.0986 49.8853-29.999 48.3242-31.8994 47.2383-33.7998 46.1523-35.7002 45.2021-38.0078 44.3877-40.7227 43.5732-43.4375 42.9624-46.7632 42.5552-50.6997 42.1479-54.6362 41.9443-59.4551 41.9443-65.1562 41.9443-74.9297 42.9189-81.7168 44.8681-85.5176 46.8173-89.3184 49.6032-91.2187 53.2258-91.2187 55.7328-91.2187 60.6757-89.0469 68.0546-84.7031 75.4334-80.3594 84.9025-75.6763 96.4618-70.6538 108.021-65.6313 121.528-60.9482 136.984-56.6045 152.44-52.2607 169.637-50.0889 188.578-50.0889 206.958-50.0889 223.11-52.3965 237.034-57.0117 250.959-61.6269 262.656-68.1426 272.126-76.5586 281.596-84.9746 288.698-94.9517 293.432-106.49 298.166-118.028 300.533-130.584 300.533-144.158 300.533-159.09 297.519-172.528 291.491-184.474 285.464-196.419 276.632-206.735 264.996-215.423 253.361-224.11 239.061-230.762 222.098-235.377 205.134-239.992 185.856-242.3 164.265-242.3L112.535-242.3C110.291-242.3 108.118-242.775 106.016-243.725 103.914-244.675 102.092-246.236 100.55-248.408 99.008-250.58 97.746-253.431 96.764-256.96 95.782-260.489 95.291-265.104 95.291-270.806 95.291-275.964 95.6982-280.24 96.5127-283.633 97.3271-287.027 98.4809-289.742 99.9741-291.778 101.467-293.814 103.164-295.307 105.064-296.257 106.965-297.207 109.137-297.683 111.58-297.683L157.597-297.683C175.515-297.683 191.6-299.99 205.853-304.605 220.106-309.221 232.187-315.872 242.096-324.56 252.005-333.247 259.607-343.631 264.901-355.712 270.195-367.793 272.842-381.3 272.842-396.231 272.842-407.091 271.077-417.475 267.548-427.384 264.019-437.293 258.725-445.913 251.666-453.243 244.607-460.573 235.581-466.342 224.585-470.55 213.59-474.758 200.898-476.862 186.51-476.862 170.764-476.862 156.307-474.487 143.14-469.736 129.973-464.985 118.231-459.895 107.915-454.465 97.5986-449.035 89.0469-443.945 82.2598-439.194 75.4726-434.443 70.7217-432.067 68.0068-432.067 66.1064-432.067 64.4097-432.407 62.9165-433.085 61.4233-433.764 60.2017-435.122 59.2515-437.158 58.3013-439.194 57.6226-442.044 57.2153-445.709 56.8081-449.374 56.6045-454.193 56.6045-460.166 56.6045-464.238 56.7402-467.835 57.0117-470.957 57.2832-474.08 57.8262-476.794 58.6406-479.102 59.4551-481.41 60.4053-483.514 61.4912-485.414 62.5771-487.314 64.4097-489.554 66.9888-492.133 69.5679-494.712 74.7939-498.445 82.667-503.332 90.54-508.219 100.246-513.038 111.784-517.789 123.322-522.539 136.624-526.544 151.692-529.802 166.759-533.06 182.98-534.688 200.355-534.688 224.789-534.688 246.236-531.566 264.697-525.322 283.158-519.078 298.565-510.255 310.917-498.853 323.27-487.45 332.5-473.808 338.609-457.926 344.717-442.044 347.771-424.466 347.771-405.19 347.771-388.63 345.6-373.223 341.256-358.97 336.912-344.717 330.532-332.093 322.116-321.098 313.7-310.103 303.384-300.737 291.167-292.999 278.95-285.262 264.833-279.9 248.815-276.914L248.815-276.1C267.005-274.199 283.633-269.652 298.701-262.457 313.768-255.263 326.731-246.236 337.591-235.377 348.45-224.518 356.934-211.826 363.042-197.301 369.151-182.777 372.205-167.234 372.205-150.674ZM816.601-264.697C816.601-224.246 813.411-187.324 807.031-153.932 800.651-120.539 790.063-91.8296 775.267-67.8032 760.471-43.7769 741.128-25.1802 717.237-12.0132 693.347 1.15381 663.891 7.7373 628.869 7.7373 595.748 7.7373 567.853 1.83252 545.184-9.97705 522.515-21.7866 504.258-39.1616 490.412-62.102 476.566-85.0425 466.725-113.277 460.888-146.805 455.051-180.333 452.133-218.816 452.133-262.254 452.133-302.434 455.391-339.288 461.906-372.816 468.422-406.344 479.01-435.122 493.67-459.148 508.33-483.174 527.605-501.771 551.496-514.938 575.387-528.105 604.707-534.688 639.457-534.688 672.85-534.688 700.88-528.784 723.549-516.974 746.218-505.164 764.476-487.79 778.321-464.849 792.167-441.909 802.008-413.674 807.845-380.146 813.682-346.618 816.601-308.135 816.601-264.697ZM744.929-259.811C744.929-286.145 743.978-309.764 742.078-330.668 740.178-351.572 737.395-370.033 733.73-386.051 730.065-402.068 725.314-415.846 719.477-427.384 713.64-438.922 706.649-448.424 698.505-455.89 690.36-463.356 681.062-468.786 670.61-472.179 660.158-475.573 648.416-477.27 635.385-477.27 612.309-477.27 593.576-471.84 579.187-460.98 564.799-450.121 553.464-435.189 545.184-416.186 536.904-397.182 531.27-374.92 528.284-349.4 525.298-323.881 523.805-296.461 523.805-267.141 523.805-227.775 525.841-194.315 529.913-166.759 533.985-139.204 540.433-116.738 549.256-99.3633 558.08-81.9883 569.346-69.3643 583.056-61.4912 596.766-53.6182 613.394-49.6816 632.941-49.6816 648.144-49.6816 661.515-52.125 673.053-57.0117 684.591-61.8984 694.5-68.8892 702.781-77.9839 711.061-87.0786 717.916-98.0059 723.346-110.766 728.775-123.525 733.119-137.643 736.377-153.117 739.635-168.592 741.874-185.356 743.096-203.41 744.318-221.463 744.929-240.264 744.929-259.811Z"/></g></g>
        <text transform="matrix(1 0 0 1 666.662 1658)" font-size="834" font-weight="400"
              font-family="Calibri,Calibri_MSFontService,sans-serif">30</text>
        <path fill-rule="evenodd" fill="none" stroke-miterlimit="8" stroke-width="10.3125" stroke="#000000"
              d="M504 1370.5C504 1047.14 767.928 785 1093.5 785 1419.07 785 1683 1047.14 1683 1370.5 1683 1693.86 1419.07 1956 1093.5 1956 767.928 1956 504 1693.86 504 1370.5Z"/></g></svg>