<svg xmlns="http://www.w3.org/2000/svg" version="1.1" viewBox="-5.0 -10.0 110.0 135.0">
    <path d="m22.414 38.191h1.332v-6.5938c0-14.402 11.848-26.242 26.25-26.242 14.414 0 26.258 11.824 26.258 26.242v6.5938h1.332c3.9648 0 7.2109 3.25 7.2109 7.2109v42.043c0 3.9609-3.2461 7.1992-7.2109 7.1992h-55.172c-3.9648 0-7.2109-3.2383-7.2109-7.1992v-42.043c0-3.9609 3.2461-7.2109 7.2109-7.2109zm10.289 0h34.59v-6.5938c0-9.5312-7.7695-17.285-17.297-17.285-6.9805 0-13.305 4.2773-15.984 10.711-0.83984 2.0117-1.3086 4.2461-1.3086 6.5742zm17.301 17.746c3.5898 0 6.5 2.9102 6.5 6.5 0 2.6484-1.5781 4.9258-3.8516 5.9414v8.5234h-5.3047v-8.5234c-2.2734-1.0156-3.8516-3.2891-3.8516-5.9414 0-3.5898 2.9102-6.5 6.5078-6.5"
          fill="#504848" fill-rule="evenodd"/>
</svg>