<svg xmlns="http://www.w3.org/2000/svg" version="1.1" viewBox="-5.0 -10.0 110.0 135.0">
 <path fill="#FFD8A8" d="m87.07 69.012-28-48.492c-1.8906-3.2812-5.2891-5.2383-9.0703-5.2383s-7.1797 1.9609-9.0703 5.2383l-28 48.492c-1.8906 3.2812-1.8906 7.1914 0 10.469 1.8906 3.2812 5.2812 5.2383 9.0703 5.2383h55.988c3.7891 0 7.1797-1.9609 9.0703-5.2383 1.8906-3.2812 1.8906-7.1914 0-10.469zm-6.0586 6.9688c-0.30078 0.51953-1.1992 1.7383-3.0117 1.7383h-56c-1.8086 0-2.7109-1.2109-3.0117-1.7383-0.30078-0.51953-0.91016-1.9102 0-3.4688l28-48.492c0.91016-1.5703 2.4102-1.7383 3.0117-1.7383s2.1016 0.17188 3.0117 1.7383l28 48.488c0.91016 1.5703 0.30078 2.9492 0 3.4688z"/>
 <path fill="#FFD8A8" d="m50 34.512c-1.9297 0-3.5 1.5703-3.5 3.5v21c0 1.9297 1.5703 3.5 3.5 3.5s3.5-1.5703 3.5-3.5v-21c0-1.9297-1.5703-3.5-3.5-3.5z"/>
 <path fill="#FFD8A8" d="m53.5 69.012c0 4.6641-7 4.6641-7 0 0-4.668 7-4.668 7 0"/>
</svg>
